<?xml version="1.0" encoding="UTF-8" standalone="no"?>
<!-- Generator: Adobe Illustrator 25.0.1, SVG Export Plug-In . SVG Version: 6.00 Build 0)  -->

<svg
   xmlns:dc="http://purl.org/dc/elements/1.1/"
   xmlns:cc="http://creativecommons.org/ns#"
   xmlns:rdf="http://www.w3.org/1999/02/22-rdf-syntax-ns#"
   xmlns:svg="http://www.w3.org/2000/svg"
   xmlns="http://www.w3.org/2000/svg"
   xmlns:sodipodi="http://sodipodi.sourceforge.net/DTD/sodipodi-0.dtd"
   xmlns:inkscape="http://www.inkscape.org/namespaces/inkscape"
   version="1.1"
   id="Laag_1"
   x="0px"
   y="0px"
   viewBox="0 0 1190.6 270.1"
   style="enable-background:new 0 0 1190.6 270.1;"
   xml:space="preserve"
   sodipodi:docname="GG_logo.svg"
   inkscape:version="0.92.4 (5da689c313, 2019-01-14)"><metadata
   id="metadata951"><rdf:RDF><cc:Work
       rdf:about=""><dc:format>image/svg+xml</dc:format><dc:type
         rdf:resource="http://purl.org/dc/dcmitype/StillImage" /></cc:Work></rdf:RDF></metadata><defs
   id="defs949" /><sodipodi:namedview
   pagecolor="#ffffff"
   bordercolor="#666666"
   borderopacity="1"
   objecttolerance="10"
   gridtolerance="10"
   guidetolerance="10"
   inkscape:pageopacity="0"
   inkscape:pageshadow="2"
   inkscape:window-width="1920"
   inkscape:window-height="1001"
   id="namedview947"
   showgrid="false"
   inkscape:zoom="1.1951957"
   inkscape:cx="595.29999"
   inkscape:cy="135.05"
   inkscape:window-x="-9"
   inkscape:window-y="-9"
   inkscape:window-maximized="1"
   inkscape:current-layer="Laag_1" />
<path
   d="M730.8,204.7h-5.7v-101c0-6.8,0-12.7,1-19.1c1.6-11.3,8.6-24.8,33.1-24.8c24.5,0,31.5,13.5,33.1,24.9c1,6.4,1,12.3,1,19.1  s0,12.7-1,19.1c-1.6,11.3-8.6,24.8-33.1,24.8c-3.7,0-7.2-0.3-10.3-0.9l1.1-5.6c2.7,0.5,5.8,0.8,9.2,0.8c16.6,0,25.6-6.5,27.4-20  c0.9-6.1,0.9-11.7,0.9-18.3s0-12.3-0.9-18.3c-1.9-13.5-10.9-20-27.4-20c-16.6,0-25.6,6.5-27.4,20c-0.9,6.1-0.9,11.7-0.9,18.3V204.7z   M709.6,204.7h-5.7v-101c0-9.1,0.2-16.6,1.2-23.7c3.7-26,23.9-41.5,54.1-41.5c30.2,0,50.4,15.5,54.1,41.5c1,7.1,1.2,14.6,1.2,23.7  s-0.2,16.6-1.2,23.7c-3.7,26-23.9,41.5-54.1,41.5c-3.5,0-6.8-0.2-10.1-0.6l0.7-5.7c3,0.4,6.1,0.6,9.3,0.6  c27.1,0,45.2-13.7,48.5-36.6c0.9-6.8,1.1-14.1,1.1-22.9s-0.2-16.2-1.1-22.9c-3.2-22.9-21.4-36.6-48.5-36.6  c-27.1,0-45.2,13.7-48.5,36.6c-0.9,6.8-1.1,14.1-1.1,22.9V204.7z"
   id="path884" />
<path
   d="M873.7,204.7H868v-101c0-6.8,0-12.7,1-19.1c1.6-11.3,8.6-24.8,33.1-24.8c24.5,0,31.5,13.5,33.1,24.9c1,6.4,1,12.3,1,19.1  s0,12.7-1,19.1c-1.6,11.3-8.6,24.8-33.1,24.8c-3.7,0-7.2-0.3-10.3-0.9l1.1-5.6c2.7,0.5,5.8,0.8,9.2,0.8c16.6,0,25.6-6.5,27.4-20  c0.9-6.1,0.9-11.7,0.9-18.3s0-12.3-0.9-18.3c-1.9-13.5-10.9-20-27.4-20c-16.6,0-25.6,6.5-27.4,20c-0.9,6.1-0.9,11.7-0.9,18.3V204.7z   M852.5,204.7h-5.7v-101c0-9.1,0.2-16.6,1.2-23.7c3.7-26,23.9-41.5,54.1-41.5S952.5,54,956.2,80c1,7.1,1.2,14.6,1.2,23.7  s-0.2,16.6-1.2,23.7c-3.7,26-23.9,41.5-54.1,41.5c-3.5,0-6.8-0.2-10.1-0.6l0.7-5.7c3,0.4,6.1,0.6,9.3,0.6  c27.1,0,45.2-13.7,48.5-36.6c0.9-6.8,1.1-14.1,1.1-22.9s-0.2-16.2-1.1-22.9c-3.2-22.9-21.4-36.6-48.5-36.6s-45.2,13.7-48.5,36.6  c-0.9,6.8-1.1,14.1-1.1,22.9V204.7z"
   id="path886" />
<path
   d="M207.5,169c-30.2,0-50.4-15.5-54.1-41.5c-1-7.1-1.2-14.6-1.2-23.7s0.2-16.6,1.2-23.7c3.7-26,23.9-41.5,54.1-41.5  S258,54,261.6,80c1,7.1,1.2,14.6,1.2,23.7s-0.2,16.6-1.2,23.7C258,153.5,237.7,169,207.5,169z M207.5,44.2  c-27.1,0-45.2,13.7-48.5,36.6c-0.9,6.8-1.1,14.1-1.1,22.9s0.2,16.2,1.1,22.9c3.2,22.9,21.4,36.6,48.5,36.6s45.2-13.7,48.5-36.6  c0.9-6.8,1.1-14.1,1.1-22.9s-0.2-16.2-1.1-22.9C252.7,57.9,234.6,44.2,207.5,44.2z M207.5,147.8c-24.5,0-31.5-13.5-33.1-24.9  c-1-6.4-1-12.3-1-19.1s0-12.7,1-19.1c1.6-11.3,8.6-24.8,33.1-24.8s31.5,13.5,33.1,24.9c1,6.4,1,12.3,1,19.1s0,12.7-1,19.1  C239,134.2,232,147.8,207.5,147.8z M207.5,65.5c-16.6,0-25.6,6.5-27.4,20c-0.9,6.1-0.9,11.7-0.9,18.3s0,12.3,0.9,18.3  c1.9,13.5,10.9,20,27.4,20s25.6-6.5,27.4-20c0.9-6.1,0.9-11.7,0.9-18.3s0-12.3-0.9-18.3C233.1,72,224.1,65.5,207.5,65.5z"
   id="path888" />
<path
   d="M480,169c-30.2,0-50.4-15.5-54.1-41.5c-1-7.1-1.2-14.6-1.2-23.7s0.2-16.6,1.2-23.7c3.7-26,23.9-41.5,54.1-41.5  c3.5,0,6.8,0.2,10.1,0.6l-0.7,5.7c-3-0.4-6.1-0.6-9.4-0.6c-27.1,0-45.2,13.7-48.5,36.6c-0.9,6.8-1.1,14.1-1.1,22.9  s0.2,16.2,1.1,22.9c3.2,22.9,21.4,36.6,48.5,36.6s45.2-13.7,48.5-36.6c0.9-6.8,1.1-14.1,1.1-22.9V2.8h5.7v101  c0,9.1-0.2,16.6-1.2,23.7C530.5,153.5,510.2,169,480,169z M480,147.8c-24.5,0-31.5-13.5-33.1-24.9c-1-6.4-1-12.3-1-19.1  s0-12.7,1-19.1c1.6-11.3,8.6-24.8,33.1-24.8c3.7,0,7.2,0.3,10.3,0.9l-1.1,5.6c-2.7-0.5-5.8-0.8-9.2-0.8c-16.6,0-25.6,6.5-27.4,20  c-0.9,6.1-0.9,11.7-0.9,18.3s0,12.3,0.9,18.3c1.9,13.5,10.9,20,27.4,20s25.6-6.5,27.4-20c0.9-6.1,0.9-11.7,0.9-18.3V2.8h5.7v101  c0,6.8,0,12.7-1,19.1C511.5,134.2,504.5,147.8,480,147.8z"
   id="path890" />
<path
   d="M344.7,169c-30.2,0-50.4-15.5-54.1-41.5c-1-7.1-1.2-14.6-1.2-23.7V41.6h5.7v62.2c0,8.9,0.2,16.2,1.1,22.9  c3.2,22.9,21.4,36.6,48.5,36.6c27.1,0,45.2-13.7,48.5-36.6c0.9-6.8,1.1-14.1,1.1-22.9V41.6h5.7v62.2c0,9.1-0.2,16.6-1.2,23.7  C395.1,153.5,374.9,169,344.7,169z M344.7,147.8c-24.5,0-31.5-13.5-33.1-24.9c-1-6.4-1-12.3-1-19.1V41.6h5.7v62.2  c0,6.6,0,12.3,0.9,18.3c1.9,13.5,10.9,20,27.4,20s25.6-6.5,27.4-20c0.9-6.1,0.9-11.7,0.9-18.3V41.6h5.7v62.2c0,6.8,0,12.7-1,19.1  C376.2,134.2,369.1,147.8,344.7,147.8z"
   id="path892" />
<path
   d="M63.3,169C29,169,5.4,153.1,1.8,127.5c-1-7.2-1.8-34.2-1.8-43l0-2.9c0.1-11.4,0.9-33.8,1.7-40.1C5.4,15.9,28.9,0,63.3,0  c0,0,0,0,0,0c25.4,0,56.6,7.2,61.5,41.5l-5.7,0.8C115.7,18,96.9,5.7,63.3,5.7c0,0,0,0,0,0c-31.3,0-52.7,14-55.9,36.6  c-0.9,6.5-1.7,32.6-1.7,42.2v2c0.1,10.8,0.9,34.2,1.7,40.3c3.2,22.6,24.6,36.6,55.9,36.6c33.6,0,52.5-12.3,55.9-36.6  c0.9-6.8,1.1-14.1,1.1-22.9v-4.5c-0.1-12.3-4.4-20-25.8-20H79.3v-5.7h15.2c21.7,0,31.4,7.9,31.5,25.7v4.6c0,9.1-0.2,16.6-1.2,23.7  C120,161.8,88.7,169,63.3,169z M63.3,147.8c-25.1,0-37.5-7.3-40.3-23.8l-0.2,0c-1-6.5-1.5-33.3-1.5-39.5l0-2.9  c0.1-9.2,0.6-29.7,1.5-35.5c2.4-17.2,14.9-24.9,40.4-24.9c0,0,0,0,0,0c26,0,38.1,7.4,40.5,24.9l-5.7,0.8C96.5,34.9,89.9,27,63.3,27  c0,0,0,0,0,0c-28.2,0-33.4,9.6-34.9,20C27.6,52.9,27,77.6,27,84.5v1.8c0.1,8.4,0.6,29,1.3,35.8l0.1,0c1.5,10.4,6.7,20,34.8,20  c26.7,0,33.2-8,34.9-20c0.9-6.1,0.9-11.7,0.9-18.3v-1c0-1.6,0-2.3-4.1-2.3H79.3v-5.7h15.6c2.7,0,9.7,0,9.8,7.9v1  c0,6.8,0,12.7-1,19.1C101.4,140.3,89.2,147.8,63.3,147.8z"
   id="path894" />
<path
   d="M1047.6,169c-30.2,0-50.4-15.5-54.1-41.5c-1-7.1-1.2-14.6-1.2-23.7s0.2-16.6,1.2-23.7c3.7-26,23.9-41.5,54.1-41.5  c32.1,0,51.7,13.6,55.2,38.2c1.9,11.8-0.3,21.9-6.4,29c-6.4,7.5-17,11.5-30.7,11.5h-28.3v-5.7h28.3c12.1,0,20.9-3.2,26.3-9.5  c5-5.9,6.8-14.3,5.1-24.5c-2.2-15.2-12.5-33.3-49.6-33.3c-27.1,0-45.2,13.7-48.5,36.6c-0.9,6.8-1.1,14.1-1.1,22.9s0.2,16.2,1.1,22.9  c3.2,22.9,21.4,36.6,48.5,36.6c13.3,0,24.5-1.6,36.6-5l1.6,5.5C1073.1,167.4,1061.4,169,1047.6,169z M1047.6,147.8  c-24.5,0-31.5-13.5-33.1-24.9c-1-6.4-1-12.3-1-19.1s0-12.7,1-19.1c1.6-11.3,8.6-24.8,33.1-24.8c12.7-0.6,22.1,1.9,28,7.4  c5.5,5.1,5.8,11,5.8,11.3c0.3,3.9,0.4,9.8-3.2,13.7c-2.3,2.5-5.7,3.8-10,3.8h-30.8v-5.7h30.8c2.7,0,4.6-0.6,5.8-1.9  c2-2.2,1.9-6.5,1.7-9.5c0-0.7-1.1-14.5-28-13.3c-16.7,0-25.7,6.5-27.6,20c-0.9,6.1-0.9,11.7-0.9,18.3s0,12.3,0.9,18.3  c1.9,13.5,10.9,20,27.4,20c11.5,0,20.3-1.4,30.4-4.8l1.8,5.4C1069.1,146.3,1059.7,147.8,1047.6,147.8z"
   id="path896" />
<path
   d="M618.1,169c-32.1,0-51.7-13.6-55.2-38.2c-1.9-11.8,0.3-21.9,6.4-29c6.4-7.5,17-11.5,30.7-11.5h28.3V96H600  c-12.1,0-20.9,3.2-26.3,9.5c-5,5.9-6.8,14.3-5.1,24.5c2.2,15.2,12.5,33.3,49.6,33.3c27.1,0,45.2-13.7,48.5-36.6  c0.9-6.8,1.1-14.1,1.1-22.9s-0.2-16.2-1.1-22.9c-3.2-22.9-21.4-36.6-48.5-36.6c-13.3,0-24.5,1.6-36.6,5l-1.6-5.5  c12.6-3.6,24.3-5.3,38.1-5.3c30.2,0,50.4,15.5,54.1,41.5c1,7.1,1.2,14.6,1.2,23.7s-0.2,16.6-1.2,23.7  C668.6,153.5,648.3,169,618.1,169z M614.7,147.8c-10.9,0-19.2-2.5-24.6-7.5c-5.5-5.1-5.8-11-5.8-11.3c-0.4-3.9-0.4-9.8,3.1-13.7  c2.3-2.5,5.7-3.8,10-3.8h30.8v5.7h-30.8c-2.7,0-4.6,0.6-5.8,1.9c-2,2.2-1.9,6.5-1.7,9.5c0,0.7,1.1,14.5,28,13.3  c16.7,0,25.7-6.5,27.6-20c0.9-6.1,0.9-11.7,0.9-18.3s0-12.3-0.9-18.3c-1.9-13.5-10.9-20-27.4-20c-11.5,0-20.3,1.4-30.4,4.8l-1.8-5.4  c10.7-3.6,20.1-5.1,32.2-5.1c24.5,0,31.5,13.5,33.1,24.9c1,6.4,1,12.3,1,19.1s0,12.7-1,19.1c-1.6,11.3-8.6,24.8-33.1,24.8  C617,147.8,615.8,147.8,614.7,147.8z"
   id="path898" />
<path
   d="M1190.6,169c-30.2,0-50.4-15.5-54.1-41.5c-1-7.5-1.2-16.5-1.2-21.2V2.8h5.7v103.5c0,4.6,0.1,13.3,1.1,20.4  c3.2,22.9,21.4,36.6,48.5,36.6V169z"
   id="path900" />
<path
   d="M1190.6,147.8c-24.5,0-31.5-13.5-33.1-24.9c-1-6.4-1-13.4-1-20.2l0-99.9h5.7l0,99.9c0,6.6,0,13.4,0.9,19.4  c1.9,13.5,10.9,20,27.4,20V147.8z"
   id="path902" />

</svg>